<svg width="32" height="32" viewBox="0 0 32 32" fill="none" xmlns="http://www.w3.org/2000/svg">
<path d="M13.5463 2.22094L16.6956 7.67529C16.9674 8.14637 16.9674 8.72616 16.6956 9.19724L13.5463 14.6516C13.2746 15.1227 12.7719 15.4126 12.2284 15.4126H5.92985C5.38629 15.4126 4.88367 15.1227 4.61189 14.6516L1.46262 9.19724C1.19084 8.72616 1.19084 8.14637 1.46262 7.67529L4.61189 2.22094C4.88367 1.74986 5.38629 1.45996 5.92985 1.45996H12.2284C12.7719 1.45996 13.2746 1.74986 13.5463 2.22094Z" fill="#D5A021"/>
<path d="M26.9506 10.0266L30.0999 15.481C30.3717 15.952 30.3717 16.5318 30.0999 17.0029L26.9506 22.4573C26.6789 22.9283 26.1762 23.2182 25.6327 23.2182H19.3341C18.7906 23.2182 18.288 22.9283 18.0162 22.4573L14.8669 17.0029C14.5951 16.5318 14.5951 15.952 14.8669 15.481L18.0162 10.0266C18.288 9.55552 18.7906 9.26562 19.3341 9.26562H25.6327C26.1762 9.2663 26.6789 9.55619 26.9506 10.0266Z" fill="#35A040"/>
<path d="M13.5463 17.7375L16.6956 23.1919C16.9674 23.663 16.9674 24.2428 16.6956 24.7138L13.5463 30.1682C13.2746 30.6393 12.7719 30.9292 12.2284 30.9292H5.92985C5.38629 30.9292 4.88367 30.6393 4.61189 30.1682L1.46262 24.7138C1.19084 24.2428 1.19084 23.663 1.46262 23.1919L4.61189 17.7375C4.88367 17.2665 5.38629 16.9766 5.92985 16.9766H12.2284C12.7719 16.9766 13.2746 17.2665 13.5463 17.7375Z" fill="#3B7541"/>
</svg>
