<svg width="25" height="25" viewBox="0 0 25 25" fill="none" xmlns="http://www.w3.org/2000/svg">
<rect x="0.800712" y="0.800712" width="23.3986" height="23.3986" rx="1.86833" stroke="black" stroke-width="1.60142"/>
<path fill-rule="evenodd" clip-rule="evenodd" d="M20.4958 20.3698C20.7275 20.8032 20.564 21.3422 20.1307 21.5739C19.6974 21.8055 19.1583 21.6421 18.9266 21.2087L13.2823 10.6504L14.2911 8.76328L20.4958 20.3698ZM13.2823 6.87617L11.728 3.96877C11.4963 3.53544 10.9573 3.37195 10.5239 3.60361C10.0906 3.83526 9.92713 4.37432 10.1588 4.80765L12.2734 8.76328L13.2823 6.87617Z" fill="black"/>
<path fill-rule="evenodd" clip-rule="evenodd" d="M17.5956 17.1117H21.3522C21.8435 17.1117 22.2419 16.7134 22.2419 16.222C22.2419 15.7307 21.8435 15.3323 21.3522 15.3323H16.6443L17.5956 17.1117ZM14.6267 15.3323H3.64755C3.1562 15.3323 2.75787 15.7307 2.75787 16.222C2.75787 16.7134 3.1562 17.1117 3.64755 17.1117H15.5779L14.6267 15.3323Z" fill="black"/>
<path fill-rule="evenodd" clip-rule="evenodd" d="M4.82071 20.3384C4.58906 20.7717 4.75254 21.3107 5.18587 21.5424C5.61919 21.774 6.15826 21.6106 6.38991 21.1772L7.96186 18.2368H5.9442L4.82071 20.3384ZM6.89543 16.4574H8.91309L15.1578 4.77615C15.3894 4.34283 15.2259 3.80376 14.7926 3.57211C14.3593 3.34046 13.8202 3.50395 13.5886 3.93727L6.89543 16.4574Z" fill="black"/>
</svg>
