<svg width="37" height="36" viewBox="0 0 37 36" fill="none" xmlns="http://www.w3.org/2000/svg">
<path fill-rule="evenodd" clip-rule="evenodd" d="M11.9668 22.5118V23.7118H13.1668H16.5431V35.9995H17.7431V23.7118V22.5118H16.5431H14.3668H13.1668V21.3118V18.3219V17.1219H14.3668H16.5431H17.7431V15.9219V15.3423C17.7431 12.6304 18.4549 10.5626 19.8787 9.13888C21.3024 7.68126 23.3363 6.95244 25.9804 6.95244H29.2549H30.4549V8.15244V11.1423V12.3423H29.2549H26.8956C24.7261 12.3423 23.6414 13.4779 23.6414 15.7491V15.9219V17.1219H24.8414H28.238H29.438V18.3219V21.3118V22.5118H28.238H24.8414H23.6414V23.7118V35.9995H24.8414V23.7118H29.438H30.638V22.5118V17.1219V15.9219H29.438H24.8414V15.7491C24.8414 14.785 25.0725 14.2848 25.3227 14.0228C25.563 13.7712 26.0102 13.5423 26.8956 13.5423H30.4549H31.6549V12.3423V6.95244V5.75244H30.4549H25.9804C23.1166 5.75244 20.7361 6.54679 19.0251 8.29537C17.3106 10.0131 16.5431 12.4286 16.5431 15.3423V15.9219H13.1668H11.9668V17.1219V22.5118Z" fill="white"/>
<path fill-rule="evenodd" clip-rule="evenodd" d="M3.40387 1.2H33.3022C34.3244 1.2 35.153 2.02865 35.153 3.05085V32.9492C35.153 33.9713 34.3244 34.8 33.3022 34.8H23.6411V36H33.3022C34.9871 36 36.353 34.6341 36.353 32.9492V3.05085C36.353 1.36591 34.9871 0 33.3022 0H3.40387C1.71894 0 0.353027 1.36591 0.353027 3.05085V32.9492C0.353027 34.6341 1.71894 36 3.40387 36H17.7428V34.8H3.40387C2.38168 34.8 1.55303 33.9713 1.55303 32.9492V3.05085C1.55303 2.02865 2.38168 1.2 3.40387 1.2Z" fill="white"/>
</svg>
