<svg width="505" height="546" viewBox="0 0 505 546" fill="none" xmlns="http://www.w3.org/2000/svg">
<path d="M120.944 44.2829L120.945 44.2841L192.491 148.247C192.491 148.247 192.492 148.248 192.492 148.248C197.756 155.903 198.538 165.775 194.547 174.163C194.547 174.164 194.547 174.164 194.546 174.165L140.279 288.104L140.278 288.105C136.287 296.492 128.121 302.107 118.864 302.841L-6.95046 312.817C-16.2067 313.551 -25.156 309.293 -30.4187 301.64L-30.4196 301.639L-101.965 197.676C-101.966 197.676 -101.966 197.675 -101.966 197.675C-107.23 190.02 -108.013 180.149 -104.021 171.76C-104.021 171.759 -104.021 171.759 -104.02 171.758L-49.7529 57.8194L-49.7522 57.818C-45.7613 49.4313 -37.595 43.816 -28.3387 43.082L97.4763 33.1057C106.733 32.3718 115.682 36.6299 120.944 44.2829Z" stroke="#D5A021" stroke-width="9"/>
<path d="M400.944 179.052L400.945 179.053L472.491 283.016C472.491 283.016 472.492 283.017 472.492 283.017C477.756 290.672 478.538 300.543 474.547 308.932C474.547 308.933 474.547 308.933 474.546 308.934L420.279 422.873L420.278 422.874C416.287 431.261 408.121 436.876 398.864 437.61L273.05 447.586C263.793 448.32 254.844 444.062 249.581 436.409L249.58 436.408L178.035 332.445C178.034 332.445 178.034 332.444 178.034 332.444C172.77 324.789 171.987 314.917 175.979 306.529C175.979 306.528 175.979 306.528 175.98 306.527L230.247 192.588L230.248 192.587C234.239 184.2 242.405 178.585 251.661 177.851L377.476 167.875C386.733 167.141 395.682 171.399 400.944 179.052Z" stroke="#35A040" stroke-width="9"/>
<path d="M145.521 354.223L145.522 354.224L217.067 458.187C217.068 458.188 217.068 458.188 217.068 458.188C222.332 465.843 223.114 475.715 219.123 484.104C219.123 484.104 219.123 484.105 219.122 484.105L164.855 598.044L164.854 598.045C160.863 606.432 152.697 612.047 143.441 612.781L17.6257 622.758C8.36944 623.492 -0.579801 619.233 -5.84252 611.58L-5.84341 611.579L-77.3892 507.617C-77.3895 507.616 -77.3898 507.616 -77.3901 507.615C-82.6536 499.96 -83.4363 490.089 -79.445 481.7C-79.4448 481.699 -79.4445 481.699 -79.4443 481.699L-25.1767 367.76L-25.176 367.758C-21.1851 359.372 -13.0188 353.756 -3.76251 353.022L122.052 343.046C131.309 342.312 140.258 346.57 145.521 354.223Z" stroke="#3B7541" stroke-width="9"/>
</svg>
