<svg width="474" height="651" viewBox="0 0 474 651" fill="none" xmlns="http://www.w3.org/2000/svg">
<g clip-path="url(#clip0_97_152)">
<path d="M573.051 197.04L573.05 197.042L555.454 321.393C555.454 321.393 555.454 321.394 555.454 321.394C554.156 330.54 548.087 338.293 539.52 341.748C539.52 341.748 539.519 341.748 539.519 341.748L423.027 388.679L423.026 388.679C414.461 392.133 404.704 390.749 397.435 385.057L298.538 307.636C291.268 301.945 287.582 292.806 288.879 283.662L288.88 283.661L306.476 159.31C306.476 159.31 306.476 159.309 306.476 159.308C307.774 150.163 313.843 142.41 322.41 138.955C322.41 138.955 322.411 138.955 322.411 138.954L438.903 92.024L438.904 92.0234C447.469 88.5696 457.226 89.954 464.495 95.6451L563.392 173.067C570.662 178.758 574.348 187.897 573.051 197.04Z" stroke="#D5A021" stroke-width="9"/>
<path d="M537.547 676.007L537.548 676.007L654.04 629.076C654.041 629.076 654.041 629.076 654.042 629.076C662.608 625.621 668.677 617.868 669.975 608.722L537.547 676.007ZM537.547 676.007C528.982 679.461 519.226 678.077 511.956 672.386L413.059 594.964C405.789 589.273 402.104 580.134 403.401 570.991L403.401 570.989L420.997 446.638C420.997 446.638 420.997 446.637 420.997 446.637C422.295 437.491 428.365 429.738 436.931 426.283C436.932 426.283 436.932 426.283 436.933 426.282L553.424 379.352L553.426 379.352C561.991 375.898 571.747 377.282 579.017 382.973L677.911 460.393C685.176 466.096 688.861 475.238 687.572 484.37C687.572 484.37 687.572 484.371 687.572 484.371L669.976 608.721L537.547 676.007Z" stroke="#35A040" stroke-width="9"/>
<path d="M382.326 440.668L382.326 440.67L364.73 565.021C364.73 565.021 364.729 565.022 364.729 565.022C363.431 574.168 357.362 581.92 348.796 585.376C348.795 585.376 348.795 585.376 348.794 585.376L232.302 632.307L232.301 632.307C223.736 635.761 213.98 634.377 206.71 628.685L107.813 551.264C100.544 545.573 96.8577 536.434 98.1547 527.29L98.155 527.289L115.751 402.938C115.751 402.937 115.751 402.937 115.751 402.936C117.049 393.791 123.119 386.038 131.685 382.583C131.686 382.583 131.686 382.582 131.687 382.582L248.178 335.652L248.18 335.651C256.745 332.198 266.501 333.582 273.771 339.273L372.668 416.695C379.937 422.386 383.623 431.525 382.326 440.668Z" stroke="#3B7541" stroke-width="9"/>
</g>
<defs>
<clipPath id="clip0_97_152">
<rect width="638.103" height="631.372" fill="white" transform="translate(389.195) rotate(38.0557)"/>
</clipPath>
</defs>
</svg>
