<svg width="164" height="147" viewBox="0 0 164 147" fill="none" xmlns="http://www.w3.org/2000/svg">
<path d="M126.528 9.39129L126.529 9.39204L159.512 66.5174C161.912 70.6781 161.912 75.7983 159.512 79.959L126.529 137.084L126.528 137.085C124.129 141.244 119.691 143.805 114.89 143.805H48.9223C44.1219 143.805 39.6837 141.244 37.2842 137.085L37.2838 137.084L4.30031 79.959C4.30017 79.9588 4.30002 79.9585 4.29988 79.9583C1.90004 75.7979 1.90004 70.6785 4.29988 66.5182C4.30002 66.5179 4.30017 66.5177 4.30031 66.5174L37.2838 9.39204L37.2842 9.39129C39.6837 5.23216 44.1219 2.67187 48.9223 2.67187H114.89C119.691 2.67187 124.129 5.23216 126.528 9.39129Z" stroke="#D5A021" stroke-width="5"/>
</svg>
