<svg width="83" height="74" viewBox="0 0 83 74" fill="none" xmlns="http://www.w3.org/2000/svg">
<path d="M63.985 69.2059L63.9847 69.2063C62.7601 71.3289 60.4951 72.6355 58.0452 72.6355H24.7167C22.2668 72.6355 20.0017 71.3289 18.7771 69.2063L18.7769 69.2059L2.11291 40.3448C0.887857 38.2214 0.887857 35.6083 2.11291 33.4849L18.7769 4.62377L18.7771 4.62341C20.0017 2.50076 22.2668 1.19412 24.7167 1.19412L58.0444 1.19412C60.4953 1.19741 62.7606 2.50472 63.985 4.62377C63.985 4.62386 63.9851 4.62396 63.9851 4.62405L80.649 33.4849C81.874 35.6083 81.874 38.2214 80.649 40.3448L63.985 69.2059Z" stroke="#35A040" stroke-width="2.38824"/>
</svg>
