<svg width="37" height="36" viewBox="0 0 37 36" fill="none" xmlns="http://www.w3.org/2000/svg">
<rect x="0.953027" y="0.6" width="34.8" height="34.8" rx="2.72103" stroke="white" stroke-width="1.2"/>
<path d="M6.57065 11.4468L6.56101 11.4367C5.98354 10.8317 5.69761 10.083 5.69761 9.22906C5.69761 8.37507 5.98401 7.63139 6.57076 7.04465L6.57065 11.4468ZM6.57065 11.4468L6.58074 11.4564M6.57065 11.4468L6.58074 11.4564M6.58074 11.4564C7.1857 12.0339 7.93448 12.3198 8.78838 12.3198M6.58074 11.4564L8.78838 12.3198M8.78838 12.3198C9.64237 12.3198 10.386 12.0334 10.9728 11.4467C11.5759 10.8435 11.8792 10.0916 11.8792 9.22906C11.8792 8.37092 11.5786 7.62772 10.9729 7.04455C10.3897 6.43884 9.64651 6.13828 8.78838 6.13828C7.92584 6.13828 7.17391 6.4415 6.57076 7.04464L8.78838 12.3198ZM6.86218 13.1125H6.26218V13.7125V30.3176V30.9176H6.86218H10.7146H11.3146V30.3176V13.7125V13.1125H10.7146H6.86218ZM15.1933 13.1125H14.5933V13.7125V30.3176V30.9176H15.1933H19.0457H19.6457V30.3176V20.6866C19.6457 19.6626 19.9463 18.9076 20.4995 18.3544C21.0527 17.8013 21.8077 17.5006 22.8317 17.5006C23.8186 17.5006 24.4937 17.7827 24.9497 18.2726L24.9497 18.2727L24.957 18.2802C25.4057 18.7456 25.6856 19.5083 25.6856 20.6866V30.3176V30.9176H26.2856H30.138H30.738V30.3176V20.5206C30.738 18.0843 30.1405 16.1392 28.8451 14.7927C27.5581 13.4326 25.8046 12.7803 23.6619 12.7803C21.8354 12.7803 20.2457 13.3223 18.9179 14.4043L18.7726 13.6051L18.683 13.1125H18.1822H15.1933Z" stroke="white" stroke-width="1.2"/>
</svg>
