<svg width="170" height="37" viewBox="0 0 170 37" fill="none" xmlns="http://www.w3.org/2000/svg">
<path d="M45.9067 6.64551H53.0894C54.5518 6.64551 55.8754 6.89316 57.0612 7.38846C58.2461 7.88376 59.1929 8.64473 59.9005 9.6706C60.6082 10.6965 60.9617 12.0178 60.9617 13.633C60.9617 15.249 60.6082 16.5962 59.9005 17.6753C59.1929 18.7545 58.2461 19.5656 57.0612 20.1079C55.8754 20.6503 54.5518 20.9214 53.0894 20.9214H49.6215V29.9967H45.9067V6.64551ZM49.6215 17.8791H52.0627C52.971 17.8791 53.7994 17.7467 54.5478 17.481C55.2971 17.2153 55.8927 16.7764 56.3347 16.1628C56.7767 15.5499 56.9985 14.7357 56.9985 13.7216C56.9985 12.6957 56.7775 11.8908 56.3347 11.307C55.8927 10.7231 55.2971 10.3077 54.5478 10.0601C53.7986 9.81245 52.9703 9.68862 52.0627 9.68862H49.6215V17.8791Z" fill="black"/>
<path d="M68.2852 29.9986H64.4819V5.65527H68.2852V29.9986Z" fill="black"/>
<path d="M75.9814 22.6036C75.9814 24.019 76.2729 25.1452 76.8568 25.983C77.4406 26.8208 78.363 27.2392 79.6256 27.2392C80.8999 27.2392 81.8254 26.8208 82.403 25.983C82.9806 25.146 83.2698 24.019 83.2698 22.6036V15.4743H87.0198V23.0817C87.0198 24.5441 86.7306 25.827 86.153 26.9297C85.5747 28.0324 84.7377 28.8905 83.6405 29.5034C82.5441 30.1162 81.2047 30.4234 79.6248 30.4234C78.0558 30.4234 76.7235 30.117 75.6271 29.5034C74.5299 28.8905 73.693 28.0324 73.1146 26.9297C72.537 25.827 72.2478 24.5441 72.2478 23.0817V15.4743H75.9806V22.6036H75.9814Z" fill="black"/>
<path d="M99.7401 15.0495C100.707 15.0495 101.651 15.2501 102.571 15.6506C103.491 16.0519 104.249 16.6914 104.844 17.5699C105.44 18.4484 105.738 19.5895 105.738 20.9931V29.9979H101.934V21.6828C101.934 20.3732 101.637 19.4093 101.041 18.7901C100.445 18.171 99.6578 17.8614 98.6797 17.8614C98.0308 17.8614 97.4054 18.044 96.8043 18.41C96.2032 18.776 95.7103 19.2713 95.327 19.8959C94.9438 20.5213 94.7518 21.2408 94.7518 22.0543V29.9971H90.9485V5.65527H94.7518V17.9155C94.8584 17.515 95.1436 17.0926 95.6099 16.6506C96.0755 16.2086 96.668 15.8309 97.3882 15.519C98.106 15.2055 98.8905 15.0495 99.7401 15.0495Z" fill="black"/>
<path d="M117.325 6.22113C118.693 6.22113 119.881 6.37787 120.889 6.68978C121.898 7.00248 122.696 7.33242 123.287 7.68038C123.877 8.02835 124.23 8.25562 124.348 8.36142L122.491 11.3865C122.314 11.2337 121.999 11.0182 121.544 10.7407C121.09 10.4641 120.536 10.2133 119.881 9.98917C119.227 9.76503 118.498 9.65296 117.696 9.65296C116.493 9.65296 115.538 9.88572 114.83 10.352C114.123 10.8183 113.768 11.4931 113.768 12.3779C113.768 12.968 113.957 13.4868 114.334 13.9351C114.712 14.3834 115.251 14.8019 115.953 15.1906C116.654 15.5801 117.494 15.9751 118.474 16.3764C119.299 16.718 120.104 17.1075 120.888 17.5441C121.673 17.9806 122.377 18.4931 123.003 19.0833C123.628 19.6734 124.127 20.3576 124.498 21.1358C124.87 21.914 125.055 22.8105 125.055 23.8247C125.055 24.8858 124.837 25.8262 124.401 26.646C123.964 27.4657 123.363 28.1554 122.596 28.7157C121.83 29.2761 120.948 29.7009 119.951 29.99C118.954 30.2792 117.89 30.4234 116.758 30.4234C115.272 30.4234 113.935 30.2432 112.75 29.8842C111.565 29.5245 110.607 29.1476 109.876 28.7526C109.145 28.3576 108.72 28.1005 108.602 27.983L110.566 24.816C110.707 24.9344 110.97 25.1076 111.354 25.338C111.737 25.5684 112.212 25.8098 112.778 26.0637C113.344 26.3176 113.971 26.53 114.662 26.7008C115.352 26.8717 116.069 26.9571 116.812 26.9571C118.239 26.9571 119.318 26.6476 120.049 26.0284C120.78 25.4093 121.146 24.6107 121.146 23.6311C121.146 22.8881 120.913 22.2424 120.447 21.6938C119.981 21.1452 119.345 20.6475 118.537 20.1993C117.729 19.751 116.812 19.309 115.786 18.8724C114.736 18.4124 113.766 17.8936 112.876 17.3152C111.986 16.7376 111.268 16.0331 110.726 15.2016C110.183 14.3701 109.913 13.3591 109.913 12.1679C109.913 10.9766 110.251 9.93588 110.93 9.04559C111.608 8.15531 112.507 7.46252 113.628 6.96722C114.748 6.46878 115.98 6.22113 117.325 6.22113Z" fill="#3B7541"/>
<path d="M135.564 30.4224C134.043 30.4224 132.689 30.0894 131.504 29.4232C130.319 28.7571 129.39 27.8487 128.718 26.6991C128.046 25.5494 127.71 24.2429 127.71 22.7805C127.71 21.3182 128.046 20.0031 128.718 18.8354C129.391 17.6677 130.319 16.7452 131.504 16.0666C132.689 15.3887 134.043 15.0493 135.564 15.0493C137.086 15.0493 138.43 15.3887 139.598 16.0666C140.765 16.7452 141.682 17.6677 142.348 18.8354C143.015 20.0031 143.348 21.3182 143.348 22.7805C143.348 24.2429 143.015 25.5494 142.348 26.6991C141.682 27.8487 140.765 28.7571 139.598 29.4232C138.43 30.0894 137.086 30.4224 135.564 30.4224ZM135.564 27.2382C136.413 27.2382 137.15 27.0431 137.775 26.6544C138.401 26.2649 138.884 25.7343 139.226 25.0627C139.568 24.3903 139.739 23.6238 139.739 22.7625C139.739 21.902 139.569 21.1324 139.226 20.4537C138.884 19.7758 138.401 19.2359 137.775 18.8354C137.15 18.4349 136.413 18.2343 135.564 18.2343C134.715 18.2343 133.975 18.4349 133.344 18.8354C132.713 19.2366 132.223 19.7758 131.876 20.4537C131.528 21.1324 131.354 21.9012 131.354 22.7625C131.354 23.6238 131.528 24.3903 131.876 25.0627C132.224 25.7351 132.713 26.2657 133.344 26.6544C133.975 27.0439 134.715 27.2382 135.564 27.2382Z" fill="#3B7541"/>
<path d="M145.117 15.4734H147.912V11.4397C147.912 9.98905 148.183 8.80644 148.725 7.89265C149.267 6.97885 149.96 6.30643 150.803 5.87618C151.647 5.44593 152.516 5.23041 153.412 5.23041C154.51 5.23041 155.35 5.38088 155.934 5.68182C156.517 5.98276 156.874 6.19201 157.004 6.30957L155.518 9.1403C155.448 9.06977 155.271 8.94281 154.988 8.7602C154.705 8.5776 154.321 8.48591 153.838 8.48591C153.484 8.48591 153.145 8.5682 152.821 8.73356C152.496 8.89892 152.222 9.22337 151.998 9.70692C151.774 10.1905 151.662 10.8981 151.662 11.83V15.4742H155.642V18.6584H151.662V29.9986H147.911V18.6584H145.116V15.4734H145.117Z" fill="#3B7541"/>
<path d="M157.794 15.4731H160.518V9.51147H164.269V15.4731H167.861V18.6573H164.269V24.8673C164.269 25.6456 164.402 26.2294 164.667 26.6189C164.932 27.0084 165.313 27.2028 165.808 27.2028C166.221 27.2028 166.548 27.126 166.79 26.9724C167.032 26.8195 167.177 26.713 167.224 26.6542L168.621 29.3964C168.551 29.4669 168.344 29.5852 168.002 29.7498C167.66 29.9152 167.218 30.068 166.675 30.2098C166.133 30.3509 165.514 30.4222 164.818 30.4222C163.591 30.4222 162.568 30.057 161.748 29.3258C160.928 28.5946 160.518 27.4504 160.518 25.894V18.6581H157.794V15.4731Z" fill="#3B7541"/>
<path d="M15.8208 2.31731L19.4987 8.68724C19.8161 9.2374 19.8161 9.91452 19.4987 10.4647L15.8208 16.8346C15.5034 17.3848 14.9164 17.7233 14.2816 17.7233H6.92574C6.29094 17.7233 5.70395 17.3848 5.38655 16.8346L1.70863 10.4647C1.39123 9.91452 1.39123 9.2374 1.70863 8.68724L5.38655 2.31731C5.70395 1.76715 6.29094 1.42859 6.92574 1.42859H14.2816C14.9164 1.42859 15.5034 1.76715 15.8208 2.31731Z" fill="#D5A021"/>
<path d="M31.4751 11.433L35.153 17.803C35.4704 18.3531 35.4704 19.0302 35.153 19.5804L31.4751 25.9503C31.1577 26.5005 30.5707 26.8391 29.9359 26.8391H22.58C21.9452 26.8391 21.3582 26.5005 21.0408 25.9503L17.3629 19.5804C17.0455 19.0302 17.0455 18.3531 17.3629 17.803L21.0408 11.433C21.3582 10.8829 21.9452 10.5443 22.58 10.5443H29.9359C30.5707 10.5451 31.1577 10.8837 31.4751 11.433Z" fill="#35A040"/>
<path d="M15.8209 20.4381L19.4988 26.808C19.8162 27.3582 19.8162 28.0353 19.4988 28.5855L15.8209 34.9554C15.5035 35.5056 14.9165 35.8441 14.2817 35.8441H6.92586C6.29106 35.8441 5.70407 35.5056 5.38667 34.9554L1.70875 28.5855C1.39135 28.0353 1.39135 27.3582 1.70875 26.808L5.38667 20.4381C5.70407 19.8879 6.29106 19.5494 6.92586 19.5494H14.2817C14.9165 19.5494 15.5035 19.8879 15.8209 20.4381Z" fill="#3B7541"/>
</svg>
