<svg width="614" height="381" viewBox="0 0 614 381" fill="none" xmlns="http://www.w3.org/2000/svg">
<path d="M544.491 127.95L544.492 127.952L605.333 233.326C605.333 233.326 605.334 233.326 605.334 233.327C609.781 241.036 609.781 250.521 605.334 258.23C605.334 258.23 605.333 258.231 605.333 258.231L544.492 363.605L544.491 363.606C540.045 371.313 531.821 376.057 522.927 376.057H401.242C392.348 376.057 384.124 371.313 379.678 363.606L379.677 363.605L318.836 258.231C318.836 258.231 318.835 258.23 318.835 258.23C314.388 250.521 314.388 241.036 318.835 233.327C318.835 233.326 318.836 233.326 318.836 233.325L379.677 127.952L379.678 127.95C384.124 120.244 392.348 115.5 401.242 115.5H522.927C531.821 115.5 540.045 120.244 544.491 127.95Z" stroke="#3B7541" stroke-width="9"/>
<path d="M287.183 153.247L287.182 153.247C284.879 157.24 280.618 159.698 276.01 159.698H212.27C207.662 159.698 203.402 157.24 201.098 153.247L201.098 153.247L169.228 98.0505C169.228 98.0503 169.228 98.05 169.228 98.0498C166.924 94.0558 166.924 89.1411 169.228 85.1472L201.098 29.951L201.098 29.9503C203.402 25.9578 207.662 23.5 212.27 23.5H276.009C280.619 23.5062 284.88 25.9654 287.183 29.951C287.183 29.9512 287.183 29.9514 287.183 29.9516L319.052 85.1472C321.356 89.1413 321.356 94.0564 319.052 98.0505L287.183 153.247Z" stroke="#35A040" stroke-width="5"/>
<path d="M71.9088 5.28342L71.909 5.28387L90.6718 37.7799C90.6719 37.78 90.672 37.7802 90.6721 37.7803C92.0233 40.1229 92.0233 43.0054 90.6721 45.348C90.672 45.3481 90.6719 45.3483 90.6718 45.3484L71.909 77.8444L71.9088 77.8449C70.5577 80.1867 68.0588 81.6283 65.3558 81.6283H27.8297C25.1267 81.6283 22.6278 80.1867 21.2767 77.8449L21.2765 77.8444L2.5137 45.3484C1.1621 43.0056 1.1621 40.1227 2.5137 37.7799L21.2765 5.28387L21.2767 5.28342C22.6278 2.94161 25.1267 1.5 27.8297 1.5H65.3558C68.0588 1.5 70.5577 2.94161 71.9088 5.28342Z" stroke="#D5A021" stroke-width="3"/>
</svg>
