<svg width="39" height="36" viewBox="0 0 39 36" fill="none" xmlns="http://www.w3.org/2000/svg">
<rect x="0.6" y="1.1" width="37.3626" height="34.077" rx="2.51268" stroke="black" stroke-width="1.2"/>
<path d="M11.6882 21.0776L24.9836 11.9651C25.5449 11.5804 26.1787 12.3386 25.7007 12.8228L16.0466 22.6012C15.8065 22.8443 15.8374 23.2436 16.1119 23.4469L18.4887 25.2076M11.6882 21.0776L5.98895 18.5528C5.53466 18.3515 5.54635 17.7028 6.00759 17.5181L29.5487 8.08824C29.9608 7.92314 30.3925 8.27905 30.309 8.71511L26.2433 29.9501C26.1655 30.3564 25.69 30.542 25.3575 30.2958L18.4887 25.2076M11.6882 21.0776L12.3545 27.5552C12.3952 27.9504 12.8221 28.1796 13.1739 27.9951L18.4887 25.2076" stroke="black" stroke-width="1.2"/>
</svg>
