<svg width="40" height="36" viewBox="0 0 40 36" fill="none" xmlns="http://www.w3.org/2000/svg">
<rect x="0.6" y="0.6" width="38.1529" height="34.8" rx="2.57647" stroke="white" stroke-width="1.2"/>
<path d="M12.1043 21.1654L25.9295 11.7543C26.5035 11.3635 27.148 12.1394 26.6583 12.632L16.6158 22.7347C16.3689 22.983 16.4006 23.3927 16.6826 23.6003L19.147 25.4134M12.1043 21.1654L6.19371 18.5647C5.72837 18.36 5.74028 17.6957 6.21266 17.5078L30.6155 7.79909C31.0363 7.63171 31.4758 7.99541 31.3901 8.44003L27.1755 30.3032C27.0958 30.7167 26.6123 30.9059 26.2732 30.6564L19.147 25.4134M12.1043 21.1654L12.7955 27.838C12.8371 28.2405 13.2714 28.4741 13.6302 28.2872L19.147 25.4134" stroke="white" stroke-width="1.2"/>
</svg>
