<svg width="37" height="36" viewBox="0 0 37 36" fill="none" xmlns="http://www.w3.org/2000/svg">
<rect x="0.953027" y="0.6" width="34.8" height="34.8" rx="2.41676" stroke="white" stroke-width="1.2"/>
<path d="M9.42306 10.6589H6.29699C6.14649 10.6589 6.01817 10.7687 6.00788 10.9188C5.8523 13.1903 7.38082 17.8031 10.2751 21.0668C12.573 23.6581 15.8694 25.4887 19.1008 25.3103C19.2566 25.3017 19.3756 25.1714 19.3756 25.0153V20.9669C19.3756 20.7655 19.5694 20.6211 19.7587 20.6898C22.0758 21.5316 23.7985 23.6224 25.1686 25.188C25.2257 25.2532 25.308 25.2902 25.3948 25.2902H30.171C30.4222 25.2902 30.5634 25.0011 30.4088 24.803L25.3889 18.3683C25.3106 18.2679 25.3038 18.129 25.3719 18.0214L29.7415 11.122C29.8687 10.9212 29.7252 10.6589 29.4874 10.6589H25.4415C25.329 10.6589 25.226 10.7217 25.1725 10.8208C23.7483 13.4615 21.3477 15.5968 19.848 16.7436C19.6526 16.893 19.3756 16.7513 19.3756 16.5053V10.9606C19.3756 10.794 19.2405 10.6589 19.0739 10.6589H14.0372C13.8003 10.6589 13.6558 10.9196 13.7814 11.1205L14.9554 12.999C14.9854 13.0469 15.0013 13.1013 15.0013 13.1578V18.8729C15.0013 19.0105 14.9038 19.1355 14.7703 19.1021C13.4585 18.7737 10.9317 13.6622 9.69954 10.8389C9.65139 10.7286 9.54344 10.6589 9.42306 10.6589Z" stroke="white" stroke-width="1.2" stroke-linecap="round"/>
</svg>
