<svg width="25" height="25" viewBox="0 0 25 25" fill="none" xmlns="http://www.w3.org/2000/svg">
<circle cx="12.5" cy="12.5" r="11.8812" stroke="black" stroke-width="1.23762"/>
<path d="M17.9456 12.5002C17.9456 15.7742 17.2807 18.7077 16.2347 20.7997C15.1701 22.9288 13.814 24.0101 12.5 24.0101C11.1861 24.0101 9.8299 22.9288 8.76536 20.7997C7.71933 18.7077 7.05448 15.7742 7.05448 12.5002C7.05448 9.22616 7.71933 6.29269 8.76536 4.20062C9.8299 2.07154 11.1861 0.990272 12.5 0.990272C13.814 0.990272 15.1701 2.07154 16.2347 4.20062C17.2807 6.29269 17.9456 9.22616 17.9456 12.5002Z" stroke="black" stroke-width="1.23762"/>
<line y1="-0.618812" x2="21.2871" y2="-0.618812" transform="matrix(1 0 0 -1 1.85626 7.73486)" stroke="black" stroke-width="1.23762"/>
<line x1="1.85626" y1="16.6463" x2="23.1434" y2="16.6463" stroke="black" stroke-width="1.23762"/>
</svg>
